# Blender v2.78 (sub 0) OBJ File: ''
# www.blender.org
mtllib spher.mtl
o Sphere
v 2.500000 -3.535537 2.499998
v 3.266407 -1.913419 3.266407
v 0.000000 -1.913422 4.619396
v 0.000000 -3.535537 3.535532
v 3.535534 -0.000004 3.535533
v 3.266407 1.913416 3.266408
v 0.000000 1.913413 4.619401
v 0.000000 -0.000005 5.000000
v 2.500000 3.535532 2.500001
v 0.000000 3.535532 3.535537
v -3.266407 1.913416 3.266408
v -3.535533 -0.000004 3.535533
v -3.266407 -1.913419 3.266407
v -2.500000 3.535532 2.500001
v -2.500000 -3.535537 2.499998
v 3.266407 -1.913416 -3.266409
v 3.535534 0.000004 -3.535535
v 5.000000 0.000000 -0.000001
v 4.619398 -1.913417 -0.000002
v 3.266407 1.913419 -3.266408
v 2.500000 3.535537 -2.500000
v 3.535533 3.535534 0.000003
v 4.619398 1.913417 0.000000
v 2.500000 -3.535532 -2.500002
v 3.535533 -3.535534 -0.000005
v 0.000000 -5.000000 -0.000006
v 0.000000 -4.619396 -1.913422
v 1.352990 -4.619398 -1.352995
v 0.000000 -3.535532 -3.535537
v 1.913417 -4.619398 -0.000005
v 1.352990 -4.619398 1.352985
v 0.000000 -4.619401 1.913412
v -1.352990 -4.619398 1.352985
v -3.535533 -3.535534 -0.000005
v -1.913417 -4.619398 -0.000005
v -1.352990 -4.619398 -1.352995
v -2.500000 -3.535532 -2.500002
v 0.000000 -1.913413 -4.619401
v 0.000000 0.000005 -5.000001
v 0.000000 1.913421 -4.619397
v 0.000000 3.535537 -3.535532
v -3.266407 -1.913416 -3.266408
v -3.535533 0.000004 -3.535535
v -3.266407 1.913419 -3.266407
v -2.500000 3.535537 -2.500000
v 0.000000 4.619401 -1.913414
v 1.352990 4.619398 -1.352987
v -0.000001 5.000000 0.000005
v 1.913417 4.619398 0.000004
v 1.352990 4.619398 1.352994
v 0.000000 4.619396 1.913420
v -1.352990 4.619398 1.352994
v -1.913417 4.619398 0.000003
v -3.535533 3.535534 0.000003
v -1.352990 4.619398 -1.352987
v -4.999999 0.000000 -0.000001
v -4.619397 -1.913417 -0.000001
v -4.619397 1.913417 0.000000
vn 0.3256 -0.5253 0.7862
vn 0.3764 0.1807 0.9087
vn 0.3764 -0.1807 0.9087
vn 0.3256 0.5253 0.7862
vn -0.3764 0.1807 0.9087
vn -0.3764 -0.1807 0.9087
vn -0.3256 0.5253 0.7862
vn -0.3256 -0.5253 0.7862
vn 0.3256 -0.5253 -0.7862
vn 0.3764 0.1807 -0.9087
vn 0.3764 -0.1807 -0.9087
vn 0.3256 0.5253 -0.7862
vn -0.3256 -0.5253 -0.7862
vn -0.3764 0.1807 -0.9087
vn -0.3764 -0.1807 -0.9087
vn -0.3256 0.5253 -0.7862
vn 0.9087 -0.1807 -0.3764
vn 0.7862 0.5253 -0.3256
vn 0.7862 -0.5253 -0.3256
vn 0.9087 0.1807 -0.3764
vn 0.9087 -0.1807 0.3764
vn 0.7862 0.5253 0.3256
vn 0.7862 -0.5253 0.3256
vn 0.9087 0.1807 0.3764
vn 0.2243 0.8103 -0.5414
vn 0.0805 0.9776 -0.1945
vn 0.1945 0.9776 -0.0805
vn 0.5414 0.8103 -0.2243
vn 0.1945 0.9776 0.0805
vn 0.5414 0.8103 0.2243
vn 0.2243 0.8103 0.5414
vn 0.0805 0.9776 0.1945
vn -0.2243 0.8103 0.5414
vn -0.0805 0.9776 0.1945
vn -0.1945 0.9776 0.0805
vn -0.5414 0.8103 0.2243
vn -0.1945 0.9776 -0.0805
vn -0.5414 0.8103 -0.2243
vn -0.2243 0.8103 -0.5414
vn -0.0805 0.9776 -0.1945
vn -0.9087 -0.1807 0.3764
vn -0.7862 0.5253 0.3256
vn -0.7862 -0.5253 0.3256
vn -0.9087 0.1807 0.3764
vn -0.7862 0.5253 -0.3256
vn -0.7862 -0.5253 -0.3256
vn -0.9087 0.1807 -0.3764
vn -0.9087 -0.1807 -0.3764
vn 0.0805 -0.9776 -0.1945
vn 0.2243 -0.8103 -0.5414
vn 0.5414 -0.8103 -0.2243
vn 0.1945 -0.9776 -0.0805
vn 0.1945 -0.9776 0.0805
vn 0.5414 -0.8103 0.2243
vn 0.0805 -0.9776 0.1945
vn 0.2243 -0.8103 0.5414
vn -0.2243 -0.8103 0.5414
vn -0.0805 -0.9776 0.1945
vn -0.5414 -0.8103 0.2243
vn -0.1945 -0.9776 0.0805
vn -0.1945 -0.9776 -0.0805
vn -0.5414 -0.8103 -0.2243
vn -0.0805 -0.9776 -0.1945
vn -0.2243 -0.8103 -0.5414
usemtl mtlNZ
s 1
f 1//1 2//1 3//1 4//1
f 5//2 6//2 7//2 8//2
f 2//3 5//3 8//3 3//3
f 6//4 9//4 10//4 7//4
f 8//5 7//5 11//5 12//5
f 3//6 8//6 12//6 13//6
f 7//7 10//7 14//7 11//7
f 4//8 3//8 13//8 15//8
usemtl mtlZ
f 29//9 38//9 16//9 24//9
f 39//10 40//10 20//10 17//10
f 38//11 39//11 17//11 16//11
f 40//12 41//12 21//12 20//12
f 37//13 42//13 38//13 29//13
f 43//14 44//14 40//14 39//14
f 42//15 43//15 39//15 38//15
f 44//16 45//16 41//16 40//16
usemtl mtlNX
f 16//17 17//17 18//17 19//17
f 20//18 21//18 22//18 23//18
f 24//19 16//19 19//19 25//19
f 17//20 20//20 23//20 18//20
f 19//21 18//21 5//21 2//21
f 23//22 22//22 9//22 6//22
f 25//23 19//23 2//23 1//23
f 18//24 23//24 6//24 5//24
usemtl mtlY
f 41//25 46//25 47//25 21//25
f 46//26 48//26 47//26
f 47//27 48//27 49//27
f 21//28 47//28 49//28 22//28
f 49//29 48//29 50//29
f 22//30 49//30 50//30 9//30
f 9//31 50//31 51//31 10//31
f 50//32 48//32 51//32
f 10//33 51//33 52//33 14//33
f 51//34 48//34 52//34
f 52//35 48//35 53//35
f 14//36 52//36 53//36 54//36
f 53//37 48//37 55//37
f 54//38 53//38 55//38 45//38
f 45//39 55//39 46//39 41//39
f 55//40 48//40 46//40
usemtl mtlX
f 13//41 12//41 56//41 57//41
f 11//42 14//42 54//42 58//42
f 15//43 13//43 57//43 34//43
f 12//44 11//44 58//44 56//44
f 58//45 54//45 45//45 44//45
f 34//46 57//46 42//46 37//46
f 56//47 58//47 44//47 43//47
f 57//48 56//48 43//48 42//48
usemtl mtlNY
f 26//49 27//49 28//49
f 27//50 29//50 24//50 28//50
f 28//51 24//51 25//51 30//51
f 26//52 28//52 30//52
f 26//53 30//53 31//53
f 30//54 25//54 1//54 31//54
f 26//55 31//55 32//55
f 31//56 1//56 4//56 32//56
f 32//57 4//57 15//57 33//57
f 26//58 32//58 33//58
f 33//59 15//59 34//59 35//59
f 26//60 33//60 35//60
f 26//61 35//61 36//61
f 35//62 34//62 37//62 36//62
f 26//63 36//63 27//63
f 36//64 37//64 29//64 27//64
