# Blender v2.78 (sub 0) OBJ File: 'saturn_pony_hope.blend'
# www.blender.org
mtllib spher.mtl
o Sphere
v 0.000000 -5.000000 -0.000004
v 0.000000 -4.619396 -1.913420
v 1.352990 -4.619398 -1.352993
v 0.000000 -3.535532 -3.535536
v 0.000000 -1.913415 -4.619400
v 3.266407 -1.913416 -3.266409
v 2.500000 -3.535532 -2.500002
v 0.000000 0.000003 -5.000001
v 0.000000 1.913419 -4.619397
v 3.266407 1.913418 -3.266408
v 3.535534 0.000002 -3.535535
v 0.000000 3.535535 -3.535533
v 0.000000 4.619399 -1.913416
v 1.352990 4.619398 -1.352989
v 2.500000 3.535535 -2.500000
v -0.000001 5.000000 0.000003
v 3.535533 -3.535534 -0.000003
v 1.913417 -4.619398 -0.000003
v 5.000000 0.000000 -0.000001
v 4.619398 -1.913417 -0.000002
v 3.535533 3.535534 0.000001
v 4.619398 1.913417 -0.000000
v 1.913417 4.619398 0.000002
v 3.535534 -0.000002 3.535533
v 3.266407 -1.913419 3.266407
v 2.500000 3.535532 2.500001
v 3.266407 1.913416 3.266408
v 1.352990 4.619398 1.352992
v 1.352990 -4.619398 1.352987
v 2.500000 -3.535535 2.499998
v 0.000000 -4.619399 1.913414
v 0.000000 -1.913420 4.619396
v 0.000000 -3.535535 3.535532
v 0.000000 1.913415 4.619399
v 0.000000 -0.000003 5.000000
v 0.000000 4.619396 1.913418
v 0.000000 3.535532 3.535535
v -3.266407 1.913416 3.266408
v -3.535533 -0.000002 3.535533
v -1.352990 4.619398 1.352992
v -2.500000 3.535532 2.500001
v -2.500000 -3.535535 2.499998
v -1.352990 -4.619398 1.352987
v -3.266407 -1.913419 3.266407
v -3.535533 -3.535534 -0.000003
v -1.913417 -4.619398 -0.000003
v -4.999999 0.000000 -0.000001
v -4.619397 -1.913417 -0.000001
v -3.535533 3.535534 0.000001
v -4.619397 1.913417 0.000000
v -1.913417 4.619398 0.000001
v -2.500000 3.535535 -2.500000
v -3.266407 1.913418 -3.266407
v -1.352990 4.619398 -1.352989
v -1.352990 -4.619398 -1.352993
v -3.266407 -1.913416 -3.266408
v -2.500000 -3.535532 -2.500002
v -3.535533 0.000002 -3.535535
vn 0.9087 -0.1807 -0.3764
vn 0.7862 0.5253 -0.3256
vn 0.7862 -0.5253 -0.3256
vn 0.9087 0.1807 -0.3764
vn 0.9087 -0.1807 0.3764
vn 0.7862 0.5253 0.3256
vn 0.7862 -0.5253 0.3256
vn 0.9087 0.1807 0.3764
vn -0.9087 -0.1807 0.3764
vn -0.7862 0.5253 0.3256
vn -0.7862 -0.5253 0.3256
vn -0.9087 0.1807 0.3764
vn -0.7862 0.5253 -0.3256
vn -0.7862 -0.5253 -0.3256
vn -0.9087 0.1807 -0.3764
vn -0.9087 -0.1807 -0.3764
vn 0.2243 0.8103 -0.5414
vn 0.0805 0.9776 -0.1945
vn 0.1945 0.9776 -0.0805
vn 0.5414 0.8103 -0.2243
vn 0.1945 0.9776 0.0805
vn 0.5414 0.8103 0.2243
vn 0.2243 0.8103 0.5414
vn 0.0805 0.9776 0.1945
vn -0.2243 0.8103 0.5414
vn -0.0805 0.9776 0.1945
vn -0.1945 0.9776 0.0805
vn -0.5414 0.8103 0.2243
vn -0.1945 0.9776 -0.0805
vn -0.5414 0.8103 -0.2243
vn -0.2243 0.8103 -0.5414
vn -0.0805 0.9776 -0.1945
vn 0.0805 -0.9776 -0.1945
vn 0.2243 -0.8103 -0.5414
vn 0.5414 -0.8103 -0.2243
vn 0.1945 -0.9776 -0.0805
vn 0.1945 -0.9776 0.0805
vn 0.5414 -0.8103 0.2243
vn 0.0805 -0.9776 0.1945
vn 0.2243 -0.8103 0.5414
vn -0.2243 -0.8103 0.5414
vn -0.0805 -0.9776 0.1945
vn -0.5414 -0.8103 0.2243
vn -0.1945 -0.9776 0.0805
vn -0.1945 -0.9776 -0.0805
vn -0.5414 -0.8103 -0.2243
vn -0.0805 -0.9776 -0.1945
vn -0.2243 -0.8103 -0.5414
vn 0.3256 -0.5253 -0.7862
vn 0.3764 0.1807 -0.9087
vn 0.3764 -0.1807 -0.9087
vn 0.3256 0.5253 -0.7862
vn -0.3256 -0.5253 -0.7862
vn -0.3764 0.1807 -0.9087
vn -0.3764 -0.1807 -0.9087
vn -0.3256 0.5253 -0.7862
vn 0.3256 -0.5253 0.7862
vn 0.3764 0.1807 0.9087
vn 0.3764 -0.1807 0.9087
vn 0.3256 0.5253 0.7862
vn -0.3764 0.1807 0.9087
vn -0.3764 -0.1807 0.9087
vn -0.3256 0.5253 0.7862
vn -0.3256 -0.5253 0.7862
usemtl mtlNX
s 1
f 6//1 11//1 19//1 20//1
f 10//2 15//2 21//2 22//2
f 7//3 6//3 20//3 17//3
f 11//4 10//4 22//4 19//4
f 20//5 19//5 24//5 25//5
f 22//6 21//6 26//6 27//6
f 17//7 20//7 25//7 30//7
f 19//8 22//8 27//8 24//8
usemtl mtlX
f 44//9 39//9 47//9 48//9
f 38//10 41//10 49//10 50//10
f 42//11 44//11 48//11 45//11
f 39//12 38//12 50//12 47//12
f 50//13 49//13 52//13 53//13
f 45//14 48//14 56//14 57//14
f 47//15 50//15 53//15 58//15
f 48//16 47//16 58//16 56//16
usemtl mtlY
f 12//17 13//17 14//17 15//17
f 13//18 16//18 14//18
f 14//19 16//19 23//19
f 15//20 14//20 23//20 21//20
f 23//21 16//21 28//21
f 21//22 23//22 28//22 26//22
f 26//23 28//23 36//23 37//23
f 28//24 16//24 36//24
f 37//25 36//25 40//25 41//25
f 36//26 16//26 40//26
f 40//27 16//27 51//27
f 41//28 40//28 51//28 49//28
f 51//29 16//29 54//29
f 49//30 51//30 54//30 52//30
f 52//31 54//31 13//31 12//31
f 54//32 16//32 13//32
usemtl mtlNY
f 1//33 2//33 3//33
f 2//34 4//34 7//34 3//34
f 3//35 7//35 17//35 18//35
f 1//36 3//36 18//36
f 1//37 18//37 29//37
f 18//38 17//38 30//38 29//38
f 1//39 29//39 31//39
f 29//40 30//40 33//40 31//40
f 31//41 33//41 42//41 43//41
f 1//42 31//42 43//42
f 43//43 42//43 45//43 46//43
f 1//44 43//44 46//44
f 1//45 46//45 55//45
f 46//46 45//46 57//46 55//46
f 1//47 55//47 2//47
f 55//48 57//48 4//48 2//48
usemtl mtlZ
f 4//49 5//49 6//49 7//49
f 8//50 9//50 10//50 11//50
f 5//51 8//51 11//51 6//51
f 9//52 12//52 15//52 10//52
f 57//53 56//53 5//53 4//53
f 58//54 53//54 9//54 8//54
f 56//55 58//55 8//55 5//55
f 53//56 52//56 12//56 9//56
usemtl mtlNZ
f 30//57 25//57 32//57 33//57
f 24//58 27//58 34//58 35//58
f 25//59 24//59 35//59 32//59
f 27//60 26//60 37//60 34//60
f 35//61 34//61 38//61 39//61
f 32//62 35//62 39//62 44//62
f 34//63 37//63 41//63 38//63
f 33//64 32//64 44//64 42//64
